<svg width="65" height="65" viewBox="0 0 65 65" fill="none" xmlns="http://www.w3.org/2000/svg">
<path d="M12.3424 62H1.03892L26.264 2.57356H38.1077L63.873 62H52.0293L45.2555 45.7928H25.516L29.2977 36.2347H41.2661L31.9157 13.9186L12.3424 62Z" fill="#12529C"/>
<path d="M26.9028 49.3193V49.8027H22.4233V52.8643H26.7202V53.3477H22.4233V56.5166H26.978V57H21.8594V49.3193H26.9028Z" fill="black"/>
<path d="M30.1655 57H29.1343L32.3945 49.3193H33.4956L36.772 57H35.6709L34.6772 54.583H32.1367L32.4106 53.7773H34.3442L32.9102 50.2969L30.1655 57Z" fill="#12529C"/>
<path d="M38.8057 56.7314V56.1406C39.6113 56.4271 40.4993 56.5703 41.4697 56.5703C43.0775 56.5703 43.8813 55.9616 43.8813 54.7441C43.8813 53.849 43.3586 53.4014 42.313 53.4014H40.7339C39.3052 53.4014 38.5908 52.7568 38.5908 51.4678C38.5908 49.9997 39.6382 49.2656 41.7329 49.2656C42.5923 49.2656 43.4248 49.373 44.2305 49.5879V50.125C43.4248 49.8743 42.5923 49.749 41.7329 49.749C40.0142 49.749 39.1548 50.3219 39.1548 51.4678C39.1548 52.3988 39.6812 52.8643 40.7339 52.8643H42.313C43.7345 52.8643 44.4453 53.4909 44.4453 54.7441C44.4453 56.2839 43.4535 57.0537 41.4697 57.0537C40.4993 57.0537 39.6113 56.9463 38.8057 56.7314Z" fill="black"/>
</svg>
